<svg height="500" viewBox="0 0 500 500" width="500" xmlns="http://www.w3.org/2000/svg"><path fill="currentColor" d="m374.974759 31.9890969c31.000066 34.5508692 30.751077 86.9928801-.781249 121.1810911-13.92716 15.099936-29.092952 29.056867-43.698518 43.529819-2.090247 2.071302-4.194928 4.127268-5.763741 5.669918 5.005046 5.489492 9.542785 10.847272 14.478365 15.80721 12.333088 12.396238 25.016205 24.446957 37.249155 36.939723 17.539309 17.914597 26.384743 39.728222 26.18898 64.675864-.196665 25.101907-9.54098 46.869523-27.488054 64.527914-18.368479 18.07229-30.586621 29.819023-42.54089 41.330593l-1.493335 1.438162c-12.440104 11.981819-24.860022 23.983823-43.913114 42.889867-14.439573 14.327708-31.000066 23.973336-50.865981 28.07805-51.077081 10.553176-101.794209-22.971966-111.044702-74.276384-5.673527-31.470981 3.648234-58.916634 26.13846-81.618862 7.453557-7.523518 9.010769-8.983891 10.238365-10.056499l.155353-.13526c.025737-.022338.051432-.044609.077138-.06687l.154807-.133859c1.246433-1.076767 2.766748-2.378821 10.490612-9.951559.872364-.855224 1.949514-1.502055 2.376223-1.825019-6.750676-7.152127-12.991646-13.903705-19.383273-20.508236-14.027297-14.492799-29.866984-27.258009-41.974538-43.577632-10.487779-14.136989-15.9884586-31.522837-16.574822-49.093747v-6.303652c.6667552-19.935799 7.647904-39.638396 20.83741-54.633303 9.416485-10.705636 19.851481-20.525376 29.973436-30.597713 15.973203-15.8938151 32.073607-31.6604289 48.122589-47.4793665 14.645259-14.4350624 29.101973-29.0685946 43.994418-43.24294 14.0706-13.3921944 31.184101-21.09372109 50.321994-23.58000521 33.480035-4.34919293 62.107485 5.80343459 84.724912 31.01269561zm-81.100134 217.3270331c-16.919542 3.596812-30.416384 12.606435-42.382303 24.629188-22.218683 22.324233-44.5357 44.551938-66.925789 66.704766-7.144079 7.068552-6.980529 6.806545-7.154695 6.790319l-.022029-.000351c-.187056.012286-.868498.444938-7.336824 6.542685-18.461291 17.404891-27.170502 38.458016-23.644057 63.709677 4.895887 35.054261 35.538707 61.105214 71.955192 61.179189 17.191987-.301313 33.475524-5.561662 47.164521-17.720638 4.684787-4.161549 9.187343-8.536002 13.661932-12.926693 17.293279-16.971974 28.36077-27.695297 39.164962-38.18314l2.024156-1.965179c11.019458-10.70027 22.152877-21.546792 39.743219-38.936445 15.836981-15.656554 22.734705-34.977579 20.541615-57.045606-4.19583-42.215409-45.28357-71.602457-86.7899-62.777772zm-82.83945-166.1606411c-1.086171 1.0004677-1.987404 1.7835209-2.837215 2.6207022-7.015002 6.9103543-14.034514 13.8180021-21.026963 20.7518119-17.219051 17.07471-35.028099 33.60453-51.455977 51.409968-15.145945 16.417054-19.863209 36.574358-16.000267 58.689296 2.905777 16.632664 11.845935 29.689264 23.650372 41.177051 13.67366 13.307394 27.276954 26.686958 40.928061 40.01871 2.083932 2.035216 4.256273 3.979317 6.501687 6.071368 1.167363-1.102409 2.157005-2.00725 3.113268-2.947275 16.334057-16.045373 32.487687-32.280195 49.047277-48.089209 15.224431-14.532493 33.534163-22.961141 54.492564-25.263389 6.294196-.691938 12.665074-.68021 20.186173-1.049183-2.054161-1.805172-3.403755-2.884126-4.631561-4.086672-23.739683-23.262454-47.543418-46.459051-71.162215-69.843293-14.656987-14.510842-25.052289-31.577432-29.025292-52.055897-1.08166-5.5733905-1.18721-11.3353268-1.779912-17.4039891zm35.422331-33.8102163c-13.196431 17.1964977-17.369707 36.1079542-9.907246 56.9156984 4.304988 12.001102 11.303751 22.359417 20.308863 31.312204 13.003374 12.928497 26.210631 25.65221 39.204984 38.588826 4.000067 3.982024 7.592368 8.374519 11.928029 13.199137 18.17351-18.240268 35.878812-34.688895 51.998161-52.569211 15.290286-16.961041 19.72428-37.9618421 14.448594-60.0415968-7.154833-29.940057-26.822278-48.561026-56.773161-54.2516937-28.520097-5.4191251-53.059071 3.1962644-71.208224 26.8466361z" fill-rule="evenodd"/></svg>