<?xml version="1.0" encoding="UTF-8"?>
<svg width="500px" height="500px" viewBox="0 0 500 500" version="1.1" xmlns="http://www.w3.org/2000/svg" xmlns:xlink="http://www.w3.org/1999/xlink">
    <title>session-mark</title>
    <defs>
        <path d="M374.974759,31.9890969 C405.974825,66.5399661 405.725836,118.981977 374.19351,153.170188 C360.26635,168.270124 345.100558,182.227055 330.494992,196.700007 C328.404745,198.771309 326.300064,200.827275 324.731251,202.369925 C329.736297,207.859417 334.274036,213.217197 339.209616,218.177135 C351.542704,230.573373 364.225821,242.624092 376.458771,255.116858 C393.99808,273.031455 402.843514,294.84508 402.647751,319.792722 C402.451086,344.894629 393.106771,366.662245 375.159697,384.320636 C356.791218,402.392926 344.573076,414.139659 332.618807,425.651229 L331.125472,427.089391 C318.685368,439.07121 306.26545,451.073214 287.212358,469.979258 C272.772785,484.306966 256.212292,493.952594 236.346377,498.057308 C185.269296,508.610484 134.552168,475.085342 125.301675,423.780924 C119.628148,392.309943 128.949909,364.86429 151.440135,342.162062 C158.893692,334.638544 160.450904,333.178171 161.6785,332.105563 L161.833853,331.970303 C161.85959,331.947965 161.885285,331.925694 161.910991,331.903433 L162.065798,331.769574 C163.312231,330.692807 164.832546,329.390753 172.55641,321.818015 C173.428774,320.962791 174.505924,320.31596 174.932633,319.992996 C168.181957,312.840869 161.940987,306.089291 155.54936,299.48476 C141.522063,284.991961 125.682376,272.226751 113.574822,255.907128 C103.087043,241.770139 97.5863634,224.384291 97,206.813381 L97,200.509729 C97.6667552,180.57393 104.647904,160.871333 117.83741,145.876426 C127.253895,135.17079 137.688891,125.35105 147.810846,115.278713 C163.784049,99.3848979 179.884453,83.6182841 195.933435,67.7993465 C210.578694,53.3642841 225.035408,38.7307519 239.927853,24.5564065 C253.998453,11.1642121 271.111954,3.46268541 290.249847,0.976401291 C323.729882,-3.37279164 352.357332,6.77983588 374.974759,31.9890969 Z M293.874625,249.31613 C276.955083,252.912942 263.458241,261.922565 251.492322,273.945318 C229.273639,296.269551 206.956622,318.497256 184.566533,340.650084 C177.422454,347.718636 177.586004,347.456629 177.411838,347.440403 L177.389809,347.440052 C177.202753,347.452338 176.521311,347.88499 170.052985,353.982737 C151.591694,371.387628 142.882483,392.440753 146.408928,417.692414 C151.304815,452.746675 181.947635,478.797628 218.36412,478.871603 C235.556107,478.57029 251.839644,473.309941 265.528641,461.150965 C270.213428,456.989416 274.715984,452.614963 279.190573,448.224272 C296.483852,431.252298 307.551343,420.528975 318.355535,410.041132 L320.379691,408.075953 C331.399149,397.375683 342.532568,386.529161 360.12291,369.139508 C375.959891,353.482954 382.857615,334.161929 380.664525,312.093902 C376.468695,269.878493 335.380955,240.491445 293.874625,249.31613 Z M211.035175,83.1554889 C209.949004,84.1559566 209.047771,84.9390098 208.19796,85.7761911 C201.182958,92.6865454 194.163446,99.5941932 187.170997,106.528003 C169.951946,123.602713 152.142898,140.132533 135.71502,157.937971 C120.569075,174.355025 115.851811,194.512329 119.714753,216.627267 C122.62053,233.259931 131.560688,246.316531 143.365125,257.804318 C157.038785,271.111712 170.642079,284.491276 184.293186,297.823028 C186.377118,299.858244 188.549459,301.802345 190.794873,303.894396 C191.962236,302.791987 192.951878,301.887146 193.908141,300.947121 C210.242198,284.901748 226.395828,268.666926 242.955418,252.857912 C258.179849,238.325419 276.489581,229.896771 297.447982,227.594523 C303.742178,226.902585 310.113056,226.914313 317.634155,226.54534 C315.579994,224.740168 314.2304,223.661214 313.002594,222.458668 C289.262911,199.196214 265.459176,175.999617 241.840379,152.615375 C227.183392,138.104533 216.78809,121.037943 212.815087,100.559478 C211.733427,94.9860875 211.627877,89.2241512 211.035175,83.1554889 Z M246.457506,49.3452726 C233.261075,66.5417703 229.087799,85.4532268 236.55026,106.260971 C240.855248,118.262073 247.854011,128.620388 256.859123,137.573175 C269.862497,150.501672 283.069754,163.225385 296.064107,176.162001 C300.064174,180.144025 303.656475,184.53652 307.992136,189.361138 C326.165646,171.12087 343.870948,154.672243 359.990297,136.791927 C375.280583,119.830886 379.714577,98.8300849 374.438891,76.7503302 C367.284058,46.8102732 347.616613,28.1893042 317.66573,22.4986365 C289.145633,17.0795114 264.606659,25.6949009 246.457506,49.3452726 Z" id="path-1"></path>
    </defs>
    <g id="session-mark" stroke="none" stroke-width="1" fill="none" fill-rule="evenodd">
        <mask id="mask-2" fill="white">
            <use xlink:href="#path-1"></use>
        </mask>
        <use id="Clip-2" fill="#5046E4" xlink:href="#path-1"></use>
    </g>
</svg>